<?xml version="1.0" standalone="no"?>
<!DOCTYPE svg PUBLIC "-//W3C//DTD SVG 20010904//EN"
 "http://www.w3.org/TR/2001/REC-SVG-20010904/DTD/svg10.dtd">
<svg version="1.0" xmlns="http://www.w3.org/2000/svg"
 width="800.000000pt" height="800.000000pt" viewBox="0 0 800.000000 800.000000"
 preserveAspectRatio="xMidYMid meet">
<metadata>
Created by potrace 1.11, written by Peter Selinger 2001-2013
</metadata>
<g transform="translate(0.000000,800.000000) scale(0.100000,-0.100000)"
fill="#000000" stroke="none">
<path d="M3655 6739 c-139 -14 -377 -56 -527 -94 -767 -195 -1440 -610 -1952
-1205 -94 -110 -266 -336 -266 -351 0 -5 786 -9 1775 -9 l1775 0 0 824 c0 775
-1 824 -17 831 -25 11 -680 14 -788 4z"/>
<path d="M4790 5870 l0 -790 1145 0 c630 0 1145 4 1145 8 0 4 -19 35 -42 68
-277 389 -628 726 -1029 987 -93 60 -402 237 -414 237 -2 0 -42 18 -89 39
-171 80 -506 194 -688 235 l-28 6 0 -790z"/>
<path d="M641 4682 c-19 -42 -45 -101 -59 -131 -64 -143 -146 -396 -197 -606
-57 -233 -85 -444 -101 -742 l-6 -123 634 0 633 0 0 840 0 840 -435 0 -435 0
-34 -78z"/>
<path d="M6523 4752 l-93 -3 0 -839 0 -840 629 0 629 0 -3 93 c-18 526 -127
999 -339 1467 l-56 125 -338 0 c-185 0 -379 -1 -429 -3z"/>
<path d="M1880 3910 l0 -840 328 0 327 1 34 55 c54 90 187 249 281 335 231
215 518 361 820 419 133 26 456 29 595 5 302 -52 612 -207 846 -424 92 -86
226 -245 280 -335 l34 -55 328 -1 327 0 0 840 0 840 -2100 0 -2100 0 0 -840z"/>
<path d="M3800 3516 c-284 -51 -496 -159 -696 -353 -166 -161 -267 -339 -337
-593 l-31 -115 -4 -722 -3 -723 1265 0 1265 0 -3 709 c-2 390 -6 713 -9 718
-3 5 -8 31 -12 57 -3 27 -8 53 -11 57 -3 5 -7 22 -10 37 -3 15 -7 34 -11 42
-3 8 -7 20 -9 27 -8 38 -27 83 -35 83 -6 0 -8 4 -4 10 7 12 -82 190 -96 190
-5 0 -8 4 -4 9 3 6 -3 14 -12 20 -10 6 -14 11 -9 11 17 0 -61 95 -154 188 -61
61 -192 162 -209 162 -6 0 -11 4 -11 9 0 14 -176 97 -265 124 -44 14 -116 33
-160 42 -106 23 -337 28 -435 11z"/>
<path d="M282 2023 l3 -678 37 -78 c60 -126 170 -213 299 -237 31 -6 391 -10
905 -10 l854 0 1 138 c7 1220 9 1315 30 1412 11 52 22 103 24 113 3 16 -54 17
-1076 17 l-1080 0 3 -677z"/>
<path d="M5763 2692 c-244 -3 -227 6 -198 -102 22 -83 26 -189 30 -895 2 -357
4 -658 4 -668 1 -16 46 -17 889 -15 l887 3 76 38 c114 57 170 118 223 245 l26
61 0 662 c0 364 -1 664 -3 666 -5 4 -1635 9 -1934 5z"/>
</g>
</svg>
